<?xml version="1.0" encoding="utf-8"?>
<!-- Generator: Adobe Illustrator 16.0.0, SVG Export Plug-In . SVG Version: 6.00 Build 0)  -->
<!DOCTYPE svg PUBLIC "-//W3C//DTD SVG 1.1//EN" "http://www.w3.org/Graphics/SVG/1.1/DTD/svg11.dtd" [
	<!ENTITY ns_flows "http://ns.adobe.com/Flows/1.0/">
	<!ENTITY ns_extend "http://ns.adobe.com/Extensibility/1.0/">
	<!ENTITY ns_ai "http://ns.adobe.com/AdobeIllustrator/10.0/">
	<!ENTITY ns_graphs "http://ns.adobe.com/Graphs/1.0/">
]>
<svg version="1.1" id="Layer_1" xmlns:x="&ns_extend;" xmlns:i="&ns_ai;" xmlns:graph="&ns_graphs;"
	 xmlns="http://www.w3.org/2000/svg" xmlns:xlink="http://www.w3.org/1999/xlink" xmlns:a="http://ns.adobe.com/AdobeSVGViewerExtensions/3.0/"
	 x="0px" y="0px" width="253px" height="42px" viewBox="0 0 253 42" enable-background="new 0 0 253 42" xml:space="preserve">
<g>
	<g>
		<path fill="#4D4C4C" d="M11.1,33.9v-8.9c0-2.2-1.1-4.2-3.4-4.2c-2.2,0-3.5,2-3.5,4.2v8.9H0.1V17.4h3.8l0.3,2
			c0.9-1.7,2.8-2.3,4.4-2.3c2,0,4,0.8,4.9,3.1c1.5-2.3,3.4-3,5.5-3c4.7,0,7,2.9,7,7.9v8.9h-4.1V25c0-2.2-0.9-4-3.1-4
			c-2.2,0-3.6,1.9-3.6,4.1v8.9L11.1,33.9L11.1,33.9L11.1,33.9z"/>
		<path fill="#4D4C4C" d="M46.2,17.4L36,40.8h-4.5l3.1-7.2L28,17.4h4.8l2.5,7.2l1.6,4.7l1.7-4.6l3-7.3L46.2,17.4L46.2,17.4z"/>
		<path fill="#4D4C4C" d="M66.1,33.9H48.5c0-7.8,0-15.7,0-23.5h17.6v4.3H52.9v5.4h12.7v4.1H52.9v5.3h13.2V33.9z"/>
		<path fill="#4D4C4C" d="M112.2,17.4h3.9v16.6h-3.9l-0.2-2.4c-0.9,1.9-3.5,2.9-5.4,2.9c-4.9,0-8.5-3-8.5-8.8c0-5.7,3.8-8.7,8.6-8.7
			c2.2,0,4.3,1,5.3,2.7L112.2,17.4z M102.3,25.6c0,3.2,2.2,5,4.9,5c6.4,0,6.4-10,0-10C104.4,20.6,102.3,22.5,102.3,25.6z"/>
		<path fill="#4D4C4C" d="M124,12.7c0,3.2-4.8,3.2-4.8,0C119.2,9.5,124,9.5,124,12.7z M119.6,17.3v16.6h4.1V17.3H119.6z"/>
		<path fill="#4D4C4C" d="M131.4,10.5v23.5h-4.1V10.5H131.4z"/>
		<path fill="#4980C1" d="M160.9,27.1c0.3,2,2,3.5,4.9,3.5c1.5,0,3.5-0.6,4.4-1.5l2.6,2.6c-1.7,1.8-4.6,2.7-7.1,2.7
			c-5.7,0-9.1-3.5-9.1-8.8c0-5,3.4-8.7,8.8-8.7c5.5,0,9,3.4,8.4,10.2H160.9z M169.9,23.7c-0.3-2.1-1.9-3.2-4.3-3.2
			c-2.2,0-4,1.1-4.6,3.2H169.9z"/>
		<path fill="#4980C1" d="M180.8,17.4l0.3,1.9c1.3-2,3-2.4,4.7-2.4c1.7,0,3.4,0.7,4.3,1.6l-1.8,3.6c-0.8-0.7-1.6-1.1-3-1.1
			c-2.1,0-4.1,1.1-4.1,4.2v8.7H177V17.4L180.8,17.4L180.8,17.4z"/>
		<path fill="#4980C1" d="M196,12.7c0,3.2-4.8,3.2-4.8,0C191.2,9.5,196,9.5,196,12.7z M191.5,17.3v16.6h4.1V17.3H191.5z"/>
		<path fill="#4980C1" d="M200.7,33.9V21.2h-3.1v-3.6h3.1v-1.1c0-4.4,3-6.5,6.3-6.5c1.4,0,3,0.5,4.3,1.3l-1.5,3.1
			c-0.9-0.6-1.7-0.9-2.5-0.9c-1.4,0-2.5,0.9-2.5,3v1.1h4.9v3.6h-4.9v12.7L200.7,33.9L200.7,33.9z"/>
		<path fill="#4980C1" d="M217,12.7c0,3.2-4.8,3.2-4.8,0C212.1,9.5,217,9.5,217,12.7z M212.5,17.3v16.6h4.1V17.3H212.5z"/>
		<path fill="#4980C1" d="M223.8,27.1c0.3,2,2,3.5,4.9,3.5c1.5,0,3.5-0.6,4.4-1.5l2.6,2.6c-1.7,1.8-4.6,2.7-7.1,2.7
			c-5.7,0-9.1-3.5-9.1-8.8c0-5,3.4-8.7,8.8-8.7c5.5,0,9,3.4,8.4,10.2H223.8z M232.8,23.7c-0.3-2.1-1.9-3.2-4.3-3.2
			c-2.2,0-4,1.1-4.6,3.2H232.8z"/>
		<path fill="#4980C1" d="M243.7,17.4l0.3,1.9c1.3-2,3-2.4,4.7-2.4c1.7,0,3.4,0.7,4.3,1.6l-1.8,3.6c-0.8-0.7-1.6-1.1-3-1.1
			c-2.1,0-4.1,1.1-4.1,4.2v8.7h-4.1V17.4L243.7,17.4L243.7,17.4z"/>
	</g>
	<g>
		<path fill="#F9BC15" d="M140.9,10.4l5.1,11.8l5.2-11.8H140.9z"/>
	</g>
	<path fill="#F9BC15" d="M124.1,12.7c0,3.3-4.9,3.3-4.9,0C119.2,9.4,124.1,9.4,124.1,12.7z"/>
	<polygon fill="#F9BC15" points="82,17.1 76.8,10.4 87.1,10.4 	"/>
	<polygon fill="#4880C1" points="69.6,15.9 69.6,34 74,34 74,22.3 	"/>
	<polygon fill="#4880C1" points="90,22.2 90,34 94.5,34 94.5,15.8 	"/>
	<g>
		<g>
			<polygon fill="#F9BC15" points="149.8,30.1 157.9,10.4 152.9,10.4 147.6,24.1 			"/>
			<polygon fill="#4880C1" points="138.8,10.4 133.8,10.4 143.5,34 147.9,34 			"/>
		</g>
	</g>
	<g>
		<polygon fill="#4880C1" points="99.4,3.5 101,1.2 96,1.2 94.3,3.5 		"/>
		<polygon fill="#4880C1" points="89.3,10.4 82,20.6 74.7,10.5 69.6,10.5 69.6,10.5 74.1,16.9 81.5,27.1 82.4,27.1 88.4,19.1 
			94.5,10.4 		"/>
		<polygon fill="#4880C1" points="95.9,8.4 97.9,5.5 92.9,5.5 90.8,8.4 		"/>
	</g>
</g>
<g display="none">
	<text transform="matrix(1 0 0 1 0.501 83.7842)" display="inline"><tspan x="0" y="0" fill="#4D4C4C" font-family="'NexaBold'" font-size="33.2634">myE   </tspan><tspan x="89.4" y="0" fill="#4D4C4C" font-family="'NexaBold'" font-size="33.2634" letter-spacing="2"> </tspan><tspan x="98.8" y="0" fill="#4D4C4C" font-family="'NexaBold'" font-size="33.2634">ail</tspan><tspan x="134.4" y="0" fill="#FFFFFF" font-family="'NexaBold'" font-size="33.2634">  </tspan><tspan x="147.8" y="0" fill="#FFFFFF" font-family="'NexaBold'" font-size="33.2634" letter-spacing="1"> </tspan><tspan x="156.5" y="0" fill="#4980C1" font-family="'NexaBold'" font-size="33.2634">erifier</tspan></text>
	<g display="inline">
		<path fill="#F9BB14" d="M141.3,60.5l5.1,11.7l5.1-11.7H141.3z"/>
	</g>
	<path display="inline" fill="#F9BB14" d="M124.7,62.7c0,3.2-4.9,3.2-4.9,0C119.8,59.5,124.7,59.5,124.7,62.7z"/>
	<polygon display="inline" fill="#F9BB14" points="82.9,67.1 77.9,60.5 88,60.5 	"/>
	<g display="inline">
		<polygon fill="#4880C1" points="70.7,65.9 70.7,83.8 75.1,83.8 75.1,72.2 		"/>
		<polygon fill="#4880C1" points="101.8,51.3 96.9,51.3 83,70.5 75.7,60.5 70.7,60.5 70.7,60.6 75.1,66.9 82.5,77 83.4,77 
			89.3,69.1 		"/>
		<polygon fill="#4880C1" points="90.9,72.1 90.9,83.8 95.3,83.8 95.3,65.8 		"/>
	</g>
	<g display="inline">
		<g>
			<polygon fill="#F9BB14" points="150.1,80 158.2,60.5 153.3,60.5 148,74.1 			"/>
			<polygon fill="#4980C1" points="139.2,60.5 134.3,60.5 144,83.9 148.3,83.9 			"/>
		</g>
	</g>
	<g display="inline">
		<rect x="89.8" y="58.5" fill="#FFFFFF" width="7" height="2"/>
	</g>
	<g display="inline">
		<rect x="93.3" y="53.6" fill="#FFFFFF" width="7" height="2"/>
	</g>
</g>
</svg>
