<?xml version="1.0" encoding="utf-8"?>
<!-- Generator: Adobe Illustrator 16.0.0, SVG Export Plug-In . SVG Version: 6.00 Build 0)  -->
<!DOCTYPE svg PUBLIC "-//W3C//DTD SVG 1.1//EN" "http://www.w3.org/Graphics/SVG/1.1/DTD/svg11.dtd">
<svg version="1.1" id="Layer_1" xmlns="http://www.w3.org/2000/svg" xmlns:xlink="http://www.w3.org/1999/xlink" x="0px" y="0px"
	 width="253px" height="42px" viewBox="-106.5 -1 253 42" enable-background="new -106.5 -1 253 42" xml:space="preserve">
<g>
	<g>
		<path fill="#FFFFFF" d="M-95.396,32.934V24.07c0-2.182-1.142-4.163-3.391-4.163c-2.216,0-3.525,1.981-3.525,4.163v8.863h-4.096
			V16.349h3.794l0.302,2.015c0.873-1.679,2.787-2.283,4.364-2.283c1.981,0,3.962,0.807,4.901,3.089
			c1.478-2.35,3.391-3.021,5.54-3.021c4.699,0,7.017,2.888,7.017,7.855v8.932h-4.096v-8.932c0-2.182-0.907-4.028-3.122-4.028
			c-2.216,0-3.592,1.913-3.592,4.097v8.863h-4.097V32.934z"/>
		<path fill="#FFFFFF" d="M-60.345,16.381L-70.449,39.85h-4.499l3.089-7.184l-6.614-16.285h4.768l2.518,7.152l1.578,4.668
			l1.712-4.566l3.022-7.253H-60.345z"/>
		<path fill="#FFFFFF" d="M-40.367,32.934h-17.592c0-7.822,0-15.678,0-23.501h17.592v4.298h-13.194v5.405h12.726v4.13h-12.726v5.303
			h13.194V32.934z"/>
		<path fill="#FFFFFF" d="M5.696,16.381h3.929v16.552H5.764l-0.202-2.418c-0.94,1.949-3.524,2.889-5.372,2.922
			c-4.9,0.033-8.527-2.988-8.527-8.797c0-5.707,3.793-8.695,8.629-8.661c2.215,0,4.33,1.041,5.271,2.686L5.696,16.381z
			 M-4.242,24.641c0,3.156,2.184,5.037,4.902,5.037c6.446,0,6.446-10.039,0-10.039C-2.059,19.639-4.242,21.484-4.242,24.641z"/>
		<path fill="#FFFFFF" d="M17.549,11.715c0,3.189-4.834,3.189-4.834,0S17.549,8.525,17.549,11.715z M13.084,16.314v16.619h4.096
			V16.314H13.084z"/>
		<path fill="#FFFFFF" d="M24.935,9.466v23.467h-4.063V9.466H24.935z"/>
		<path fill="#FFFFFF" d="M54.379,26.117c0.27,2.049,2.049,3.525,4.937,3.525c1.511,0,3.492-0.57,4.433-1.545l2.617,2.586
			c-1.744,1.813-4.599,2.686-7.117,2.686c-5.707,0-9.098-3.523-9.098-8.828c0-5.037,3.424-8.663,8.796-8.663
			c5.539,0,8.997,3.425,8.359,10.239H54.379z M63.377,22.727c-0.27-2.146-1.946-3.222-4.297-3.222c-2.215,0-4.029,1.074-4.634,3.222
			H63.377z"/>
		<path fill="#FFFFFF" d="M74.256,16.381l0.303,1.914c1.275-2.048,2.988-2.351,4.666-2.351c1.713,0,3.357,0.672,4.266,1.579
			l-1.848,3.559c-0.839-0.705-1.612-1.075-2.955-1.075c-2.148,0-4.129,1.143-4.129,4.198v8.729h-4.096V16.38L74.256,16.381
			L74.256,16.381z"/>
		<path fill="#FFFFFF" d="M89.5,11.715c0,3.189-4.836,3.189-4.836,0S89.5,8.525,89.5,11.715z M85.033,16.314v16.619h4.098V16.314
			H85.033z"/>
		<path fill="#FFFFFF" d="M94.166,32.934V20.209h-3.088v-3.593h3.088v-1.107c0-4.432,2.987-6.479,6.312-6.479
			c1.444,0,2.956,0.47,4.298,1.343l-1.511,3.055c-0.873-0.57-1.679-0.873-2.519-0.873c-1.41,0-2.483,0.94-2.483,2.955v1.107h4.868
			v3.593h-4.868v12.725h-4.097V32.934z"/>
		<path fill="#FFFFFF" d="M110.483,11.715c0,3.189-4.835,3.189-4.835,0S110.483,8.525,110.483,11.715z M106.019,16.314v16.619h4.096
			V16.314H106.019z"/>
		<path fill="#FFFFFF" d="M117.299,26.117c0.269,2.049,2.048,3.525,4.936,3.525c1.512,0,3.491-0.57,4.432-1.545l2.619,2.586
			c-1.746,1.813-4.6,2.686-7.117,2.686c-5.709,0-9.1-3.523-9.1-8.828c0-5.037,3.426-8.663,8.797-8.663
			c5.539,0,8.997,3.425,8.359,10.239H117.299z M126.297,22.727c-0.271-2.146-1.947-3.222-4.297-3.222
			c-2.217,0-4.03,1.074-4.635,3.222H126.297z"/>
		<path fill="#FFFFFF" d="M137.174,16.381l0.304,1.914c1.274-2.048,2.987-2.351,4.666-2.351c1.713,0,3.356,0.672,4.265,1.579
			l-1.848,3.559c-0.838-0.705-1.611-1.075-2.954-1.075c-2.147,0-4.129,1.143-4.129,4.198v8.729h-4.097V16.38L137.174,16.381
			L137.174,16.381z"/>
	</g>
	<g>
		<path fill="#F9BC15" d="M34.352,9.444l5.119,11.847l5.152-11.847H34.352z"/>
	</g>
	<path fill="#F9BC15" d="M17.617,11.683c0,3.254-4.932,3.254-4.932,0C12.686,8.432,17.617,8.432,17.617,11.683z"/>
	<polygon fill="#F9BC15" points="-24.55,16.134 -29.654,9.444 -19.447,9.444 	"/>
	<polygon fill="#FFFFFF" points="-36.911,14.924 -36.911,32.967 -32.48,32.967 -32.48,21.285 	"/>
	<polygon fill="#FFFFFF" points="-16.47,21.152 -16.47,32.967 -12.037,32.967 -12.037,14.793 	"/>
	<g>
		<g>
			<polygon fill="#F9BC15" points="43.274,29.107 51.416,9.437 46.449,9.437 41.123,23.129 			"/>
			<polygon fill="#FFFFFF" points="32.25,9.437 27.281,9.437 37.047,33.035 41.416,33.035 			"/>
		</g>
	</g>
	<g>
		<polygon fill="#FFFFFF" points="-7.108,2.463 -5.481,0.15 -10.494,0.15 -12.156,2.463 		"/>
		<polygon fill="#FFFFFF" points="-17.174,9.444 -24.457,19.575 -31.809,9.469 -36.911,9.469 -36.911,9.52 -32.442,15.932 
			-24.995,26.119 -24.121,26.119 -18.115,18.109 -12.02,9.444 		"/>
		<polygon fill="#FFFFFF" points="-10.564,7.377 -8.563,4.53 -13.643,4.53 -15.688,7.377 		"/>
	</g>
</g>
</svg>
